HIERARCHY
ROOT Hips
{
	OFFSET 0.000000 0.000000 0.000000
	CHANNELS 6 Xposition Yposition Zposition Xrotation Yrotation Zrotation
	JOINT LeftUpLeg_virtual
	{
		OFFSET 0.000000 0.000000 0.000000
		CHANNELS 3 Xrotation Yrotation Zrotation
		JOINT LeftUpLeg
		{
			OFFSET 15.427100 -6.655098 0.678600
			CHANNELS 3 Xrotation Yrotation Zrotation
			JOINT LeftLeg
			{
				OFFSET 4.081073 -39.591068 13.024000
				CHANNELS 3 Xrotation Yrotation Zrotation
				JOINT LeftFoot
				{
					OFFSET -4.081074 -37.707932 -15.979700
					CHANNELS 3 Xrotation Yrotation Zrotation
					JOINT LeftToeBase
					{
						OFFSET 5.346399 -15.068900 20.645000
						CHANNELS 3 Xrotation Yrotation Zrotation
						JOINT LeftToe_End
						{
							OFFSET 2.754700 0.931300 11.300900
							CHANNELS 3 Xrotation Yrotation Zrotation
							End Site
							{
								OFFSET 0 0 0
							}
						}
					}
				}
			}
		}
	}
	JOINT RightUpLeg_virtual
	{
		OFFSET 0.000000 0.000000 0.000000
		CHANNELS 3 Xrotation Yrotation Zrotation
		JOINT RightUpLeg
		{
			OFFSET -15.569500 -6.655098 0.678600
			CHANNELS 3 Xrotation Yrotation Zrotation
			JOINT RightLeg
			{
				OFFSET -4.081825 -39.591045 13.023800
				CHANNELS 3 Xrotation Yrotation Zrotation
				JOINT RightFoot
				{
					OFFSET 4.081824 -37.707954 -15.979600
					CHANNELS 3 Xrotation Yrotation Zrotation
					JOINT RightToeBase
					{
						OFFSET -5.346400 -15.068900 20.645000
						CHANNELS 3 Xrotation Yrotation Zrotation
						JOINT RightToe_End
						{
							OFFSET -2.754700 0.931300 11.300900
							CHANNELS 3 Xrotation Yrotation Zrotation
							End Site
							{
								OFFSET 0 0 0
							}
						}
					}
				}
			}
		}
	}
	JOINT Spine_virtual
	{
		OFFSET 0.000000 0.000000 0.000000
		CHANNELS 3 Xrotation Yrotation Zrotation
		JOINT Spine
		{
			OFFSET -0.279200 12.230698 -2.892100
			CHANNELS 3 Xrotation Yrotation Zrotation
			JOINT Spine1
			{
				OFFSET -0.232667 10.192268 -1.242267
				CHANNELS 3 Xrotation Yrotation Zrotation
				JOINT Spine1_split
				{
					OFFSET -0.232667 10.192268 -1.242267
					CHANNELS 3 Xrotation Yrotation Zrotation
					JOINT Spine2
					{
						OFFSET -0.232667 10.192268 -1.242267
						CHANNELS 3 Xrotation Yrotation Zrotation
						JOINT Neck_virtual
						{
							OFFSET 0.000000 0.000000 0.000000
							CHANNELS 3 Xrotation Yrotation Zrotation
							JOINT Neck
							{
								OFFSET -0.418800 17.814194 8.416900
								CHANNELS 3 Xrotation Yrotation Zrotation
								JOINT Head
								{
									OFFSET 0.000000 7.031097 3.806800
									CHANNELS 3 Xrotation Yrotation Zrotation
									JOINT HeadTop_End
									{
										OFFSET 0.000000 24.646606 12.978600
										CHANNELS 3 Xrotation Yrotation Zrotation
										End Site
										{
											OFFSET 0 0 0
										}
									}
								}
							}
						}
						JOINT LeftShoulder_virtual
						{
							OFFSET 0.000000 0.000000 0.000000
							CHANNELS 3 Xrotation Yrotation Zrotation
							JOINT LeftShoulder
							{
								OFFSET 8.476499 7.247704 -3.868750
								CHANNELS 3 Xrotation Yrotation Zrotation
								JOINT LeftShoulder_split
								{
									OFFSET 8.476499 7.247704 -3.868750
									CHANNELS 3 Xrotation Yrotation Zrotation
									JOINT LeftArm
									{
										OFFSET 9.308998 -2.777710 0.208600
										CHANNELS 3 Xrotation Yrotation Zrotation
										JOINT LeftForeArm
										{
											OFFSET 29.972298 0.000000 0.000000
											CHANNELS 3 Xrotation Yrotation Zrotation
											JOINT LeftHand
											{
												OFFSET 26.026505 0.000000 0.000000
												CHANNELS 3 Xrotation Yrotation Zrotation
												End Site
												{
													OFFSET 0 0 0
												}
											}
										}
									}
								}
							}
						}
						JOINT RightShoulder_virtual
						{
							OFFSET 0.000000 0.000000 0.000000
							CHANNELS 3 Xrotation Yrotation Zrotation
							JOINT RightShoulder
							{
								OFFSET -7.570500 7.247704 -3.868750
								CHANNELS 3 Xrotation Yrotation Zrotation
								JOINT RightShoulder_split
								{
									OFFSET -7.570500 7.247704 -3.868750
									CHANNELS 3 Xrotation Yrotation Zrotation
									JOINT RightArm
									{
										OFFSET -9.308998 -2.777710 0.208500
										CHANNELS 3 Xrotation Yrotation Zrotation
										JOINT RightForeArm
										{
											OFFSET -29.972300 0.000000 0.000000
											CHANNELS 3 Xrotation Yrotation Zrotation
											JOINT RightHand
											{
												OFFSET -26.026505 0.000000 0.000000
												CHANNELS 3 Xrotation Yrotation Zrotation
												End Site
												{
													OFFSET 0 0 0
												}
											}
										}
									}
								}
							}
						}
					}
				}
			}
		}
	}
}
MOTION
Frames: 11
Frame Time: 0.03333333
-10.177751 119.981461 1.325722 0.000000 0.000000 0.000000 -18.544339 5.402302 2.536143 -82.793128 18.453356 22.999827 100.291677 -15.377467 2.454975 -6.931467 9.323971 9.822523 8.898649 -1.449915 -3.856738 0.000000 0.000000 0.000000 -18.322430 -1.156704 1.102737 -83.997427 -3.528640 -8.987270 92.378472 -3.319680 1.865100 -12.920704 2.687471 21.211796 -20.336504 -0.719056 -38.684542 0.000000 0.000000 0.000000 -9.557139 0.207471 -0.918383 -2.159668 9.316943 5.787566 18.387537 1.170887 1.661146 -0.002928 -1.184085 0.156715 0.000000 0.000000 0.000000 19.241333 3.101050 1.384911 3.879502 11.282972 -5.838429 1.138015 -44.629252 -8.687855 0.000000 0.000000 0.000000 24.491530 0.881901 3.504351 -1.977502 -2.036674 22.751292 -1.555554 1.403983 -5.767020 -39.936444 -41.631246 15.485400 -22.621262 -5.907883 -15.035058 0.000000 0.000000 0.000000 21.615305 1.205091 2.913903 0.236691 19.718030 -32.268833 2.619276 -3.637927 5.063765 -39.385975 18.249828 -16.059814 -44.128855 42.340848 32.605933 0.000000 0.000000 0.000000 
-9.225970 119.004051 1.030123 0.000000 0.000000 0.000000 -18.446096 5.307745 2.688337 -83.115452 17.184785 22.592912 98.607441 -16.059530 1.345501 -6.468034 8.380697 8.399494 8.679178 -1.340630 -3.827023 0.000000 0.000000 0.000000 -19.020953 -0.365497 1.362757 -83.820860 -3.605761 -11.345325 92.221610 -4.038840 2.714589 -15.405027 2.473950 18.396266 -17.650307 -1.243522 -39.726501 0.000000 0.000000 0.000000 -11.046532 -0.107628 -1.038623 -2.124954 9.185594 5.973315 18.545495 0.952839 1.627488 0.129102 -0.677022 0.185049 0.000000 0.000000 0.000000 19.155935 2.817334 1.496794 4.259574 11.016644 -5.223968 0.402985 -43.889440 -7.930956 0.000000 0.000000 0.000000 24.346744 0.668241 3.548695 -1.998866 -2.358931 23.400071 -4.050843 0.346474 -5.411342 -40.846884 -40.291276 16.420145 -21.530660 -3.545656 -14.194928 0.000000 0.000000 0.000000 21.226346 0.979032 2.957784 0.943176 21.831421 -31.039921 1.913702 -3.468973 3.921612 -42.668612 18.446195 -13.426715 -44.843791 42.650088 32.705794 0.000000 0.000000 0.000000 
-8.159468 118.427536 0.960514 0.000000 0.000000 0.000000 -18.725974 4.840908 2.651945 -84.344189 15.380264 23.846926 98.351732 -17.149391 0.487345 -3.705172 6.362650 6.463744 7.792467 -1.313358 -3.443670 0.000000 0.000000 0.000000 -20.067441 0.187166 1.460107 -84.148805 -2.676269 -14.557913 92.877281 -3.613822 3.807670 -14.367458 3.225999 15.304533 -15.747609 -1.688751 -39.850035 0.000000 0.000000 0.000000 -12.325035 0.152943 -1.296027 -1.726130 8.624268 5.515017 18.359625 0.424857 1.339377 0.426208 -0.259217 0.054313 0.000000 0.000000 0.000000 18.313434 2.387281 1.324227 3.354325 10.906747 -3.563328 -2.307045 -44.342257 -6.390147 0.000000 0.000000 0.000000 23.352350 0.208779 3.363118 -1.354821 -3.459491 26.513240 -5.191071 -1.130390 -4.392175 -42.993852 -38.609287 14.383769 -20.395211 -3.927279 -13.292850 0.000000 0.000000 0.000000 19.822920 0.523753 2.748820 1.738708 24.426266 -29.105721 2.251246 -4.736819 3.494464 -46.862563 20.702450 -10.293754 -44.859706 41.975505 31.896338 0.000000 0.000000 0.000000 
-7.025534 118.539001 1.020077 0.000000 0.000000 0.000000 -19.470404 4.009064 2.302374 -85.679293 13.113859 26.362051 98.953424 -18.476022 0.072683 0.336343 3.559114 4.970729 6.432055 -1.414067 -2.774362 0.000000 0.000000 0.000000 -21.323197 0.816236 1.327967 -85.147057 -0.329868 -17.914729 93.359650 -1.484628 4.424606 -9.223985 4.577743 12.403230 -13.279818 -2.717753 -38.578848 0.000000 0.000000 0.000000 -13.222382 0.385535 -1.989177 -1.055704 7.850768 4.708990 18.059095 -0.278091 0.798980 0.571275 0.043644 -0.199604 0.000000 0.000000 0.000000 17.167312 1.893209 0.879856 1.261095 10.845101 -1.408862 -6.169136 -45.645772 -4.765858 0.000000 0.000000 0.000000 22.061695 -0.379670 2.931161 -0.135058 -4.653616 30.826443 -6.157403 -2.232409 -3.159031 -45.599914 -36.231206 10.340073 -19.080446 -7.610654 -12.342609 0.000000 0.000000 0.000000 18.057333 -0.052960 2.253305 2.545173 27.121967 -27.013740 4.341188 -6.137921 3.473656 -51.367052 24.003486 -7.053997 -44.314636 40.905136 30.574942 0.000000 0.000000 0.000000 
-5.690560 119.373985 1.019056 0.000000 0.000000 0.000000 -20.877359 2.755173 1.539501 -85.583773 10.706304 29.153201 99.093819 -19.708104 -0.067499 4.609887 0.395440 4.626219 4.514687 -1.602638 -1.895715 0.000000 0.000000 0.000000 -22.599286 0.838837 0.731419 -86.414085 3.178747 -20.464603 93.032299 1.643498 4.482187 -0.876165 5.993130 9.409901 -10.064433 -4.331847 -36.263356 0.000000 0.000000 0.000000 -14.238625 0.027548 -3.020789 -0.202200 7.082664 3.860816 17.992967 -1.027860 0.151809 0.581503 0.165000 -0.283836 0.000000 0.000000 0.000000 16.367717 1.413223 0.305341 -1.341880 10.637291 0.517258 -9.244180 -46.775082 -3.417629 0.000000 0.000000 0.000000 21.154259 -0.938321 2.307418 1.260987 -5.083846 34.431243 -6.769812 -3.734800 -1.449265 -48.384141 -32.576744 5.337763 -16.817263 -13.903205 -10.626429 0.000000 0.000000 0.000000 16.851412 -0.624772 1.598822 3.464358 29.804548 -25.666522 7.984280 -5.935799 3.342214 -55.736881 27.378844 -4.201747 -43.122389 39.347791 28.825471 0.000000 0.000000 0.000000 
-4.237279 121.278534 0.392162 0.000000 0.000000 0.000000 -22.979615 0.948816 0.164322 -83.619356 8.552459 31.689376 97.651631 -20.676005 0.072382 9.679685 -2.762245 4.837005 2.268702 -1.764356 -1.140177 0.000000 0.000000 0.000000 -23.997600 0.043748 -0.419396 -86.676091 6.630455 -21.841021 91.788016 4.791848 4.269981 9.546562 6.583697 6.783297 -8.006465 -5.768377 -33.637725 0.000000 0.000000 0.000000 -16.130620 -1.014480 -3.959614 0.682206 6.571897 3.348601 18.613451 -1.638944 -0.452875 0.506050 0.235994 -0.292704 0.000000 0.000000 0.000000 16.584271 0.994068 -0.320794 -3.504394 10.356629 1.477250 -9.903761 -46.559713 -2.440215 0.000000 0.000000 0.000000 21.408692 -1.362536 1.598461 2.348017 -4.289327 35.848992 -7.279231 -5.172077 0.124653 -50.954980 -28.653856 0.314756 -12.875647 -21.103577 -7.352773 0.000000 0.000000 0.000000 17.114234 -1.091871 0.874473 4.591756 32.537259 -25.332456 10.979890 -4.715833 2.932475 -59.427427 30.190911 -2.462791 -40.986415 36.752408 26.410228 0.000000 0.000000 0.000000 
-2.822616 124.365593 -0.895618 0.000000 0.000000 0.000000 -25.372792 -1.030526 -1.669192 -80.092813 7.298540 33.640423 94.097891 -21.281010 0.380856 15.895846 -5.692612 4.959681 0.029496 -1.875385 -0.525779 0.000000 0.000000 0.000000 -25.439086 -0.793370 -1.807463 -85.107702 8.783582 -22.344612 88.575000 7.354816 4.022518 20.044251 6.426768 5.729927 -8.162467 -6.662980 -31.174083 0.000000 0.000000 0.000000 -18.863005 -2.520644 -4.771212 1.277148 6.329641 3.377113 20.125072 -2.084108 -0.927203 0.221829 0.322598 -0.219357 0.000000 0.000000 0.000000 17.884972 0.629298 -0.908394 -4.365755 10.137038 1.277212 -7.413334 -45.095416 -1.774022 0.000000 0.000000 0.000000 23.179099 -1.713093 0.783613 3.063305 -2.814303 34.333947 -7.560412 -6.367060 2.297319 -54.064581 -25.805684 -4.735294 -6.459645 -27.007454 -1.724407 0.000000 0.000000 0.000000 19.238194 -1.369590 0.197423 6.162778 35.623610 -25.613411 12.710286 -3.871492 2.972180 -62.708704 31.807242 -1.504403 -38.311535 33.200259 23.631157 0.000000 0.000000 0.000000 
-1.633242 128.900986 -2.650829 0.000000 0.000000 0.000000 -27.807913 -2.816593 -3.348848 -74.754740 7.732630 34.383439 87.709068 -21.308040 0.510213 22.476677 -8.216109 4.811248 -2.131986 -1.967693 0.236474 0.000000 0.000000 0.000000 -27.029719 -1.542493 -2.930066 -80.966961 9.045224 -22.159183 82.557275 8.608408 3.542003 27.695427 5.736163 5.891505 -8.056482 -7.122357 -28.815748 0.000000 0.000000 0.000000 -22.321712 -4.128878 -5.352486 1.497988 6.192200 3.763438 22.492084 -2.371254 -1.249515 -0.064262 0.475756 -0.122554 0.000000 0.000000 0.000000 20.048451 0.262487 -1.370638 -3.402103 9.944784 0.068657 -1.607323 -42.830105 -1.324908 0.000000 0.000000 0.000000 26.132398 -2.112385 -0.084789 3.590939 -1.274586 30.253650 -7.104698 -7.129690 4.425925 -57.893756 -25.311470 -9.793632 1.546251 -29.347062 5.469435 0.000000 0.000000 0.000000 22.847717 -1.427558 -0.293107 7.942187 39.240762 -26.162246 13.586375 -3.694559 3.795189 -65.797056 32.327179 -1.019882 -36.076496 29.435684 21.284734 0.000000 0.000000 0.000000 
-0.938948 134.873154 -4.790003 0.000000 0.000000 0.000000 -29.443948 -4.018314 -4.000999 -67.293551 10.150538 33.265060 77.517962 -20.503717 0.404542 27.575863 -10.120765 4.505104 -4.035727 -2.174239 1.370058 0.000000 0.000000 0.000000 -27.859838 -1.655732 -3.046166 -73.430332 7.270193 -21.588876 72.777510 8.335479 2.448969 31.511631 4.650249 6.853149 -6.136387 -6.802071 -26.887345 0.000000 0.000000 0.000000 -25.540770 -5.607435 -5.643621 1.155101 6.033440 4.272217 25.174112 -2.558976 -1.478947 -0.275260 0.756176 -0.109210 0.000000 0.000000 0.000000 22.374339 -0.151152 -1.788104 -1.220216 9.594117 -1.474214 5.864902 -40.357026 -1.193190 0.000000 0.000000 0.000000 29.542412 -2.645856 -0.866506 4.117025 -0.390168 24.826436 -5.470437 -6.584647 5.714636 -62.434199 -27.369205 -15.216027 8.693236 -27.859643 11.626971 0.000000 0.000000 0.000000 26.962100 -1.357178 -0.664448 9.570097 43.056628 -26.256881 14.060881 -3.595392 5.305200 -68.903276 32.202655 -0.263120 -34.984441 27.108174 20.162293 0.000000 0.000000 0.000000 
-0.643277 141.993896 -6.808931 0.000000 0.000000 0.000000 -29.544933 -4.294025 -3.378722 -57.411988 14.089645 29.815029 63.385754 -18.904451 0.194656 29.887152 -11.435750 3.820442 -5.033441 -2.521965 3.043549 0.000000 0.000000 0.000000 -27.761522 -1.649385 -2.295386 -63.288601 4.011380 -20.403003 59.055489 7.350731 0.570100 32.780912 3.631547 8.874291 -1.680111 -5.526995 -25.649030 0.000000 0.000000 0.000000 -27.223519 -6.341841 -5.229907 0.275548 5.728116 4.504415 27.265391 -2.772572 -1.585057 -0.304581 0.970471 -0.061812 0.000000 0.000000 0.000000 23.998872 -0.570304 -2.162345 1.053205 8.897895 -2.524893 12.324930 -38.812058 -1.532780 0.000000 0.000000 0.000000 32.383272 -3.217576 -1.333692 4.700343 -0.561369 19.535820 -3.158456 -5.423039 5.995652 -67.199554 -30.644040 -21.203788 13.581823 -25.475856 15.095990 0.000000 0.000000 0.000000 30.190095 -1.342347 -0.887417 10.263390 46.216875 -24.757803 14.806426 -2.325653 6.548561 -71.913259 31.613756 1.837010 -35.084107 27.149809 20.538565 0.000000 0.000000 0.000000 
-0.720145 150.186523 -8.581766 0.000000 0.000000 0.000000 -27.903177 -3.754883 -1.805180 -46.142200 18.142690 24.385882 46.849470 -17.099770 0.114514 30.291554 -12.311263 2.392841 -4.807065 -2.840698 4.980652 0.000000 0.000000 0.000000 -26.330873 -1.421280 -0.723092 -52.375352 0.551349 -18.790011 43.105877 7.113439 -2.198145 33.285506 3.529872 12.672610 3.882072 -3.311007 -25.250873 0.000000 0.000000 0.000000 -26.688406 -6.111611 -3.891208 -0.967564 5.292974 4.191598 27.994691 -2.893703 -1.530764 -0.113641 1.119915 -0.078585 0.000000 0.000000 0.000000 24.282730 -0.849862 -2.459293 2.550979 7.932777 -2.559164 16.136660 -38.754384 -2.187634 0.000000 0.000000 0.000000 33.627924 -3.558822 -1.317532 5.151251 -1.700547 15.439882 -0.712703 -3.714057 4.542424 -71.261645 -34.026110 -27.482137 16.763984 -26.373807 16.300045 0.000000 0.000000 0.000000 31.486445 -1.394196 -0.962190 9.036835 48.112921 -20.512043 14.611518 -0.342260 6.626448 -74.063143 30.692148 5.440586 -35.841773 28.871835 22.140091 0.000000 0.000000 0.000000 
